<svg id="highscore" xmlns="http://www.w3.org/2000/svg" viewBox="0 0 100 100"><defs><style>.cls-1{fill:#fff;}</style></defs><title>highscore</title><g id="Ebene_2" data-name="Ebene 2"><circle class="cls-1" cx="50" cy="50" r="50"/></g><g id="Ebene_1" data-name="Ebene 1"><g id="Trophy"><path d="M67.77,76.06H29.9a1,1,0,0,0-1,1v6.61a.31.31,0,0,0,.31.3H70.8a.31.31,0,0,0,.31-.3V77.07a1,1,0,0,0-1-1Z"/><path d="M76,22H70.45V20.17A2.16,2.16,0,0,0,68.29,18H31.7a2.15,2.15,0,0,0-2.15,2.15h0V22H23.93A5,5,0,0,0,19,27v3.22A14.79,14.79,0,0,0,26.11,43a14.34,14.34,0,0,0,6.24,1.91h.14a1.6,1.6,0,0,0,.23,0,20.42,20.42,0,0,0,8.88,7.91A7.83,7.83,0,0,1,46,60v3.69a2.49,2.49,0,0,1-2.49,2.49h-5a3,3,0,0,0-3,3v4.23h29V69.2a3,3,0,0,0-3-3h-5A2.49,2.49,0,0,1,54,63.68V60a7.82,7.82,0,0,1,4.48-7.17,20.54,20.54,0,0,0,9-7.88h.13A14.55,14.55,0,0,0,73.82,43,14.77,14.77,0,0,0,81,30.17V27A5,5,0,0,0,76,22ZM28.43,39.79A10.82,10.82,0,0,1,23,30.27V27.05a1.11,1.11,0,0,1,1.11-1.11h6.14v8.4a19.54,19.54,0,0,0,1.14,6.55A11.33,11.33,0,0,1,28.43,39.79ZM58,35.38,55.6,37.09A1.58,1.58,0,0,0,55,38.85l.88,2.7a1.62,1.62,0,0,1-.33,1.62,1.57,1.57,0,0,1-2.08.2l-2.35-1.7a1.58,1.58,0,0,0-1.85,0L47,43.34a1.62,1.62,0,0,1-1.64.19,1.58,1.58,0,0,1-.83-1.92l.89-2.76a1.58,1.58,0,0,0-.57-1.76l-2.3-1.67a1.64,1.64,0,0,1-.69-1.5,1.59,1.59,0,0,1,1.57-1.39h2.9a1.58,1.58,0,0,0,1.5-1.09l.88-2.7a1.6,1.6,0,0,1,1.21-1.12,1.58,1.58,0,0,1,1.8,1.06l.9,2.76a1.58,1.58,0,0,0,1.5,1.09H57a1.61,1.61,0,0,1,1.44.81A1.58,1.58,0,0,1,58,35.38ZM77,30.27a11,11,0,0,1-5.17,9.52,10.25,10.25,0,0,1-2.47,1,20.69,20.69,0,0,0,1-6.48v-8.4h5.48A1.11,1.11,0,0,1,77,27.05Z"/></g></g></svg>