<svg id="score" xmlns="http://www.w3.org/2000/svg" viewBox="0 0 100 100"><defs><style>.cls-1{fill:#fff;}</style></defs><title>score</title><circle class="cls-1" cx="50" cy="50" r="50"/><path d="M40.21,39.45,20.65,41.62a1.85,1.85,0,0,0-1,3.21L34.16,58.08s-2.4,11.55-4,19.26a1.88,1.88,0,0,0,.73,1.88,1.84,1.84,0,0,0,2,.1L50,69.58l17.09,9.75a1.85,1.85,0,0,0,2.73-2c-1.59-7.72-4-19.27-4-19.27L80.39,44.84a1.88,1.88,0,0,0,.52-2,1.84,1.84,0,0,0-1.56-1.26L59.79,39.45l-8.1-17.93A1.88,1.88,0,0,0,50,20.43a1.86,1.86,0,0,0-1.69,1.09Z"/></svg>